<svg width="26" height="26" viewBox="0 0 26 26" fill="none" xmlns="http://www.w3.org/2000/svg">
<path d="M23.8021 19.8568C23.8021 20.2468 23.7155 20.6477 23.5313 21.0377C23.3471 21.4277 23.1088 21.796 22.7946 22.1427C22.2638 22.7277 21.6788 23.1502 21.018 23.421C20.368 23.6918 19.6638 23.8327 18.9055 23.8327C17.8005 23.8327 16.6196 23.5727 15.3738 23.0418C14.128 22.511 12.8821 21.796 11.6471 20.8968C10.4013 19.9868 9.22047 18.9793 8.0938 17.8635C6.97797 16.7368 5.97047 15.556 5.0713 14.321C4.18297 13.086 3.46797 11.851 2.94797 10.6268C2.42797 9.39185 2.16797 8.21102 2.16797 7.08435C2.16797 6.34768 2.29797 5.64352 2.55797 4.99352C2.81797 4.33268 3.22964 3.72602 3.8038 3.18435C4.49714 2.50185 5.25547 2.16602 6.05714 2.16602C6.36047 2.16602 6.6638 2.23102 6.93464 2.36102C7.2163 2.49102 7.46547 2.68602 7.66047 2.96768L10.1738 6.51018C10.3688 6.78102 10.5096 7.03018 10.6071 7.26852C10.7046 7.49602 10.7588 7.72352 10.7588 7.92935C10.7588 8.18935 10.683 8.44935 10.5313 8.69851C10.3905 8.94768 10.1846 9.20768 9.92464 9.46768L9.1013 10.3235C8.98214 10.4427 8.92797 10.5835 8.92797 10.7568C8.92797 10.8435 8.9388 10.9193 8.96047 11.006C8.99297 11.0927 9.02547 11.1577 9.04714 11.2227C9.24214 11.5802 9.57797 12.046 10.0546 12.6093C10.5421 13.1727 11.0621 13.7468 11.6255 14.321C12.2105 14.8952 12.7738 15.426 13.348 15.9135C13.9113 16.3902 14.3771 16.7152 14.7455 16.9102C14.7996 16.9318 14.8646 16.9643 14.9405 16.9968C15.0271 17.0293 15.1138 17.0402 15.2113 17.0402C15.3955 17.0402 15.5363 16.9752 15.6555 16.856L16.4788 16.0435C16.7496 15.7727 17.0096 15.5668 17.2588 15.4368C17.508 15.2852 17.7571 15.2093 18.028 15.2093C18.2338 15.2093 18.4505 15.2527 18.6888 15.3502C18.9271 15.4477 19.1763 15.5885 19.4471 15.7727L23.033 18.3185C23.3146 18.5135 23.5096 18.741 23.6288 19.0118C23.7371 19.2827 23.8021 19.5535 23.8021 19.8568Z" stroke="black" stroke-opacity="0.5" stroke-width="1.5" stroke-miterlimit="10"/>
<path d="M20.0417 9.7487C20.0417 9.0987 19.5325 8.10203 18.7742 7.28953C18.0808 6.54203 17.16 5.95703 16.25 5.95703" stroke="black" stroke-opacity="0.5" stroke-width="1.5" stroke-linecap="round" stroke-linejoin="round"/>
<path d="M23.8333 9.74935C23.8333 5.55685 20.4425 2.16602 16.25 2.16602" stroke="black" stroke-opacity="0.5" stroke-width="1.5" stroke-linecap="round" stroke-linejoin="round"/>
</svg>
