<svg width="36" height="36" viewBox="0 0 36 36" fill="none" xmlns="http://www.w3.org/2000/svg">
<g clip-path="url(#clip0_173_38)">
<path d="M32.625 0.843636H3.375C2.71134 0.836882 2.0721 1.09368 1.59755 1.55768C1.12301 2.02168 0.851909 2.65499 0.84375 3.31864V32.6868C0.853385 33.3494 1.12513 33.9813 1.59952 34.4441C2.0739 34.9069 2.7123 35.1629 3.375 35.1561H32.625C33.2887 35.1614 33.9275 34.9037 34.4018 34.4394C34.8761 33.9751 35.1474 33.342 35.1562 32.6783V3.3102C35.1444 2.6485 34.8719 2.01821 34.3979 1.55634C33.9239 1.09447 33.2868 0.838342 32.625 0.843636Z" fill="#0076B2"/>
<path d="M5.92307 13.7053H11.0165V30.0938H5.92307V13.7053ZM8.47119 5.54907C9.05539 5.54907 9.62645 5.72234 10.1122 6.04696C10.5979 6.37158 10.9764 6.83296 11.1998 7.37274C11.4232 7.91251 11.4815 8.50643 11.3674 9.07936C11.2532 9.65229 10.9717 10.1785 10.5584 10.5914C10.1451 11.0043 9.61863 11.2853 9.04559 11.3989C8.47256 11.5126 7.87869 11.4537 7.33913 11.2297C6.79957 11.0058 6.33855 10.6268 6.01439 10.1408C5.69024 9.65481 5.51751 9.08358 5.51807 8.49938C5.51881 7.71665 5.83027 6.96624 6.38401 6.41303C6.93775 5.85982 7.68846 5.54907 8.47119 5.54907ZM14.2115 13.7053H19.094V15.9553H19.1615C19.8421 14.6672 21.5015 13.3088 23.9793 13.3088C29.1374 13.2975 30.0937 16.6922 30.0937 21.0938V30.0938H25.0003V22.1203C25.0003 20.2219 24.9665 17.7778 22.3537 17.7778C19.7409 17.7778 19.2965 19.8478 19.2965 21.9966V30.0938H14.2115V13.7053Z" fill="white"/>
</g>
<defs>
<clipPath id="clip0_173_38">
<rect width="36" height="36" fill="white"/>
</clipPath>
</defs>
</svg>
