<svg width="50" height="41" viewBox="0 0 50 41" fill="none" xmlns="http://www.w3.org/2000/svg">
<path d="M47.2653 0.000180082H41.0154V4.6876C41.0154 5.13902 40.9265 5.58601 40.7537 6.00306C40.581 6.42011 40.3278 6.79905 40.0086 7.11825C39.6894 7.43744 39.3104 7.69064 38.8934 7.86339C38.4763 8.03614 38.0293 8.12505 37.5779 8.12505C37.1265 8.12505 36.6795 8.03614 36.2625 7.86339C35.8454 7.69064 35.4665 7.43744 35.1473 7.11825C34.8281 6.79905 34.5749 6.42011 34.4021 6.00306C34.2294 5.58601 34.1405 5.13902 34.1405 4.6876V0.000180082H15.9376V4.6876C15.9376 5.59927 15.5755 6.4736 14.9308 7.11825C14.2862 7.76289 13.4119 8.12505 12.5002 8.12505C11.5885 8.12505 10.7142 7.76289 10.0696 7.11825C9.42491 6.4736 9.06276 5.59927 9.06276 4.6876V0.000180082H2.81286C2.44102 -0.00405131 2.07212 0.0663255 1.72796 0.207149C1.3838 0.347972 1.07137 0.556382 0.80916 0.820051C0.546947 1.08372 0.340271 1.3973 0.201357 1.74223C0.0624426 2.08717 -0.00588969 2.45646 0.000401636 2.82826V37.7964C-0.0058061 38.1617 0.0600009 38.5246 0.194064 38.8644C0.328127 39.2042 0.527819 39.5143 0.781735 39.7769C1.03565 40.0395 1.33882 40.2496 1.67392 40.395C2.00902 40.5404 2.36948 40.6184 2.73473 40.6245H47.2653C47.6305 40.6184 47.991 40.5404 48.3261 40.395C48.6612 40.2496 48.9643 40.0395 49.2183 39.7769C49.4722 39.5143 49.6719 39.2042 49.8059 38.8644C49.94 38.5246 50.0058 38.1617 49.9996 37.7964V2.82826C50.0058 2.46301 49.94 2.10012 49.8059 1.76031C49.6719 1.4205 49.4722 1.11043 49.2183 0.847808C48.9643 0.585186 48.6612 0.375158 48.3261 0.22972C47.991 0.0842821 47.6305 0.00628407 47.2653 0.000180082ZM12.5002 31.2497H9.37525V28.1247H12.5002V31.2497ZM12.5002 23.4373H9.37525V20.3124H12.5002V23.4373ZM12.5002 15.6249H9.37525V12.5H12.5002V15.6249ZM21.8751 31.2497H18.7501V28.1247H21.8751V31.2497ZM21.8751 23.4373H18.7501V20.3124H21.8751V23.4373ZM21.8751 15.6249H18.7501V12.5H21.8751V15.6249ZM31.2499 31.2497H28.1249V28.1247H31.2499V31.2497ZM31.2499 23.4373H28.1249V20.3124H31.2499V23.4373ZM31.2499 15.6249H28.1249V12.5H31.2499V15.6249ZM40.6247 31.2497H37.4998V28.1247H40.6247V31.2497ZM40.6247 23.4373H37.4998V20.3124H40.6247V23.4373ZM40.6247 15.6249H37.4998V12.5H40.6247V15.6249Z" fill="white"/>
</svg>
