<svg width="70" height="68" viewBox="0 0 70 68" fill="none" xmlns="http://www.w3.org/2000/svg">
<path d="M0 34C0 15.2223 15.2223 0 34 0H36C54.7777 0 70 15.2223 70 34C70 52.7777 54.7777 68 36 68H34C15.2223 68 0 52.7777 0 34Z" fill="#E74040"/>
<g clip-path="url(#clip0_211_282)">
<path d="M35 30.3182C35.9403 30.3182 36.8421 30.6917 37.507 31.3566C38.1719 32.0215 38.5455 32.9233 38.5455 33.8636C38.5455 34.8039 38.1719 35.7057 37.507 36.3707C36.8421 37.0356 35.9403 37.4091 35 37.4091C34.0597 37.4091 33.1579 37.0356 32.493 36.3707C31.8281 35.7057 31.4545 34.8039 31.4545 33.8636C31.4545 32.9233 31.8281 32.0215 32.493 31.3566C33.1579 30.6917 34.0597 30.3182 35 30.3182ZM35 25C40.9091 25 45.9555 28.6755 48 33.8636C45.9555 39.0518 40.9091 42.7273 35 42.7273C29.0909 42.7273 24.0445 39.0518 22 33.8636C24.0445 28.6755 29.0909 25 35 25ZM24.5764 33.8636C25.5316 35.814 27.0148 37.4572 28.8575 38.6066C30.7001 39.7559 32.8283 40.3652 35 40.3652C37.1717 40.3652 39.2999 39.7559 41.1425 38.6066C42.9852 37.4572 44.4684 35.814 45.4236 33.8636C44.4684 31.9133 42.9852 30.27 41.1425 29.1207C39.2999 27.9714 37.1717 27.3621 35 27.3621C32.8283 27.3621 30.7001 27.9714 28.8575 29.1207C27.0148 30.27 25.5316 31.9133 24.5764 33.8636Z" fill="white"/>
</g>
<defs>
<clipPath id="clip0_211_282">
<rect width="32" height="32" fill="white" transform="translate(19 18)"/>
</clipPath>
</defs>
</svg>
