<svg width="70" height="68" viewBox="0 0 70 68" fill="none" xmlns="http://www.w3.org/2000/svg">
<path d="M0 34C0 15.2223 15.2223 0 34 0H36C54.7777 0 70 15.2223 70 34C70 52.7777 54.7777 68 36 68H34C15.2223 68 0 52.7777 0 34Z" fill="#E74040"/>
<g clip-path="url(#clip0_211_291)">
<path d="M36.2254 22.5075C35.9003 22.1825 35.4596 22 35 22C34.5404 22 34.0997 22.1825 33.7746 22.5075L22.2541 34.0262C22.1736 34.1068 22.1097 34.2024 22.066 34.3077C22.0224 34.413 22 34.5258 22 34.6398C22 34.7537 22.0224 34.8665 22.066 34.9718C22.1097 35.0771 22.1736 35.1727 22.2541 35.2533C22.4169 35.416 22.6376 35.5075 22.8677 35.5075C22.9816 35.5075 23.0945 35.485 23.1997 35.4414C23.305 35.3978 23.4007 35.3339 23.4812 35.2533L35 23.7328L46.5188 35.2533C46.6815 35.416 46.9022 35.5075 47.1323 35.5075C47.3624 35.5075 47.5831 35.416 47.7459 35.2533C47.9086 35.0906 48 34.8699 48 34.6398C48 34.4096 47.9086 34.1889 47.7459 34.0262L43.6659 29.948V24.2406C43.6659 24.0108 43.5746 23.7904 43.4121 23.6279C43.2496 23.4653 43.0292 23.374 42.7993 23.374H41.0662C40.8363 23.374 40.6159 23.4653 40.4534 23.6279C40.2909 23.7904 40.1996 24.0108 40.1996 24.2406V26.4817L36.2254 22.5075Z" fill="white"/>
<path d="M35.0002 25.6151L45.3993 36.0142V43.3058C45.3993 43.9953 45.1254 44.6565 44.6379 45.1441C44.1503 45.6316 43.489 45.9055 42.7995 45.9055H27.2009C26.5114 45.9055 25.8501 45.6316 25.3625 45.1441C24.875 44.6565 24.6011 43.9953 24.6011 43.3058V36.0142L35.0002 25.6151Z" fill="white"/>
</g>
<defs>
<clipPath id="clip0_211_291">
<rect width="32" height="32" fill="white" transform="translate(19 18)"/>
</clipPath>
</defs>
</svg>
