<svg width="48" height="48" viewBox="0 0 48 48" fill="none" xmlns="http://www.w3.org/2000/svg">
<g clip-path="url(#clip0_710_55)">
<mask id="mask0_710_55" style="mask-type:luminance" maskUnits="userSpaceOnUse" x="0" y="0" width="48" height="48">
<path d="M48 0H0V48H48V0Z" fill="white"/>
</mask>
<g mask="url(#mask0_710_55)">
<path d="M14.8249 1.96875C19.5616 2.91609 23.9607 4.20112 27.4849 6.36084L29.6888 10.1606L39.4924 14.0364C39.0449 17.115 35.8403 21.3424 33.8686 25.056L29.4608 26.9939C29.4796 28.7039 27.0799 31.1167 25.661 32.7127L23.4191 32.0097L24.4451 33.8527C23.5779 35.5533 21.8423 36.0494 20.2273 37.0255L19.0493 43.4472L20.8732 45.1952L19.4293 46.0312L15.8954 43.9414C15.7531 36.6557 16.0453 29.3742 16.2374 22.0922C12.6099 20.8219 10.8976 17.0795 8.56168 14.1126C8.36349 13.8608 8.5868 10.2493 10.6516 8.83069L11.161 5.53163C12.5056 4.11544 12.7244 3.53644 14.8249 1.96875Z" stroke="#E74040" stroke-width="4" stroke-linejoin="round"/>
</g>
</g>
<defs>
<clipPath id="clip0_710_55">
<rect width="48" height="48" fill="white"/>
</clipPath>
</defs>
</svg>
