<svg width="48" height="48" viewBox="0 0 48 48" fill="none" xmlns="http://www.w3.org/2000/svg">
<path d="M24 3C19.8466 3 15.7865 4.23163 12.333 6.53914C8.8796 8.84665 6.18798 12.1264 4.59854 15.9636C3.0091 19.8009 2.59323 24.0233 3.40352 28.0969C4.21381 32.1705 6.21386 35.9123 9.15077 38.8492C12.0877 41.7861 15.8295 43.7862 19.9031 44.5965C23.9767 45.4068 28.1991 44.9909 32.0364 43.4015C35.8736 41.812 39.1534 39.1204 41.4609 35.667C43.7684 32.2135 45 28.1534 45 24C44.9937 18.4324 42.7791 13.0947 38.8422 9.15777C34.9053 5.22089 29.5676 3.00635 24 3ZM6.00001 24C6.00157 21.4732 6.53686 18.9753 7.57084 16.6698C8.60482 14.3643 10.1142 12.3032 12 10.6215V13.5C12 14.2956 12.3161 15.0587 12.8787 15.6213C13.4413 16.1839 14.2044 16.5 15 16.5H20.073C20.6305 16.5003 21.177 16.3452 21.6513 16.0521C22.1256 15.7591 22.5088 15.3397 22.758 14.841L23.4255 13.5H27V19.5H19.8525C19.3876 19.4998 18.9291 19.6076 18.513 19.815L13.6575 22.245C13.1598 22.4941 12.7411 22.8767 12.4484 23.3501C12.1557 23.8234 12.0004 24.3689 12 24.9255V30.483C12 31.0826 12.1796 31.6684 12.5157 32.1649C12.8517 32.6614 13.3289 33.0458 13.8855 33.2685L19.659 35.5785L20.676 41.6775C16.555 40.899 12.8345 38.7076 10.1556 35.4808C7.47666 32.254 6.00707 28.1939 6.00001 24ZM23.769 41.988L22.341 33.42L15 30.4845V24.927L19.854 22.5H30V10.5H21.573L20.073 13.5H15V8.4345C17.2837 7.10515 19.8328 6.29678 22.4652 6.06718C25.0976 5.83757 27.7483 6.19241 30.2276 7.10632C32.7069 8.02023 34.9537 9.47063 36.8073 11.3538C38.6609 13.237 40.0755 15.5065 40.95 18H33V24L34.383 29.7195L31.5 34.047V40.3425C29.1498 41.4323 26.5906 41.9979 24 42C23.922 42 23.847 41.9895 23.769 41.988ZM34.5 38.5905V34.9545L36.879 31.3845C37.1109 31.0366 37.2677 30.6441 37.3392 30.2321C37.4108 29.8201 37.3955 29.3977 37.2945 28.992L36 23.8155V21H41.73C42.3164 24.3158 41.9481 27.7301 40.668 30.8446C39.3879 33.9591 37.2487 36.6455 34.5 38.5905Z" fill="#E74040"/>
</svg>
