<svg width="50" height="40" viewBox="0 0 50 40" fill="none" xmlns="http://www.w3.org/2000/svg">
<path fill-rule="evenodd" clip-rule="evenodd" d="M0.585003 0.892502C0.206287 1.34244 -0.000950656 1.9119 3.27865e-06 2.5V32.5C3.27865e-06 34.4891 0.790179 36.3967 2.1967 37.8033C3.60322 39.2098 5.51087 40 7.49999 40H42.5C44.4891 40 46.3967 39.2098 47.8033 37.8033C49.2098 36.3967 49.9999 34.4891 49.9999 32.5V2.525C50.0023 2.15247 49.9219 1.78406 49.7646 1.44639C49.6072 1.10873 49.3768 0.810239 49.0899 0.572503C48.6455 0.20434 48.087 0.00197422 47.5099 2.94508e-06H2.5C2.13492 -0.000558241 1.77417 0.0790878 1.44326 0.233311C1.11235 0.387534 0.819359 0.612567 0.585003 0.892502ZM5 8.53499V32.5C5 33.163 5.26339 33.7989 5.73223 34.2677C6.20107 34.7366 6.83695 35 7.49999 35H42.5C43.163 35 43.7989 34.7366 44.2677 34.2677C44.7366 33.7989 45 33.163 45 32.5V8.53499L26.7675 26.7675C26.2987 27.2361 25.6629 27.4994 25 27.4994C24.3371 27.4994 23.7013 27.2361 23.2325 26.7675L5 8.53499Z" fill="white"/>
</svg>
