<svg width="55" height="55" viewBox="0 0 55 55" fill="none" xmlns="http://www.w3.org/2000/svg">
<g clip-path="url(#clip0_205_47)">
<path fill-rule="evenodd" clip-rule="evenodd" d="M0.666111 3.33667C-1.82125e-07 4.64444 0 6.35556 0 9.77778V11.6539L54.9694 6.655C54.9114 5.16389 54.7556 4.16778 54.3339 3.33667C53.748 2.18684 52.8132 1.25199 51.6633 0.666111C50.3556 -1.82125e-07 48.6444 0 45.2222 0H9.77778C6.35556 0 4.64444 -1.82125e-07 3.33667 0.666111C2.18684 1.25199 1.25199 2.18684 0.666111 3.33667ZM55 12.7906L40.1347 14.1411L47.7919 54.9847C49.6008 54.945 50.7344 54.8075 51.6633 54.3339C52.8132 53.748 53.748 52.8132 54.3339 51.6633C55 50.3556 55 48.6444 55 45.2222V12.7906ZM41.58 55L34.0206 14.6972L0 17.7894V45.2222C0 48.6444 -1.82125e-07 50.3556 0.666111 51.6633C1.25199 52.8132 2.18684 53.748 3.33667 54.3339C4.64444 55 6.35556 55 9.77778 55H41.58ZM29.0278 36.7583C29.0278 43.3522 22.4889 47.9844 19.6381 49.6925C19.2443 49.9299 18.7932 50.0554 18.3333 50.0554C17.8735 50.0554 17.4224 49.9299 17.0286 49.6925C14.1778 47.9844 7.63889 43.3522 7.63889 36.7553C7.63889 30.2867 12.8211 25.9722 18.3333 25.9722C24.0381 25.9722 29.0278 30.2867 29.0278 36.7583Z" fill="white"/>
<path d="M18.3331 39.7223C20.0207 39.7223 21.3887 38.3543 21.3887 36.6668C21.3887 34.9792 20.0207 33.6112 18.3331 33.6112C16.6456 33.6112 15.2776 34.9792 15.2776 36.6668C15.2776 38.3543 16.6456 39.7223 18.3331 39.7223Z" fill="white"/>
</g>
<defs>
<clipPath id="clip0_205_47">
<rect width="55" height="55" fill="white"/>
</clipPath>
</defs>
</svg>
